# xmcd
#
# Track frame offsets: 
#        150
#        21103
#        36959
#        57125
#        72310
#        93117
#        111681
#        126989
#        143780
#        150438
#        165746
#        181834
#
# Disc length: 2626 seconds
#
# Revision: 2
# Processed by: cddbd v1.5.2PL0 Copyright (c) Steve Scherf et al.
# Submitted via: ExactAudioCopy v0.99pb5
#
DISCID=a00a400c
DTITLE=Mythos - The Reality Of A Dreamer
DYEAR=2000
DGENRE=New Age
TTITLE0=Alchemy
TTITLE1=Kaleidoscope
TTITLE2=Venice
TTITLE3=Vision I
TTITLE4=Requiem
TTITLE5=Solstice
TTITLE6=Fantasy
TTITLE7=Destiny
TTITLE8=Reveries
TTITLE9=The Ring
TTITLE10=Redemption
TTITLE11=Vision II
EXTD=YEAR: 2000
EXTT0=
EXTT1=
EXTT2=
EXTT3=
EXTT4=
EXTT5=
EXTT6=
EXTT7=
EXTT8=
EXTT9=
EXTT10=
EXTT11=
PLAYORDER=
